<svg width="30" height="30" viewBox="0 0 30 30" fill="none" xmlns="http://www.w3.org/2000/svg">
<g clip-path="url(#clip0_553_13)">
<path d="M15 0C6.71484 0 0 6.71484 0 15C0 23.2852 6.71484 30 15 30C23.2852 30 30 23.2852 30 15C30 6.71484 23.2852 0 15 0ZM3.75 15C3.75 8.7832 8.78906 3.75 15 3.75C17.4668 3.75 19.7461 4.55273 21.5977 5.90039L5.90039 21.5977C4.55273 19.7461 3.75 17.4668 3.75 15ZM15 26.25C12.5332 26.25 10.2539 25.4473 8.40234 24.0996L24.0996 8.40234C25.4473 10.2598 26.25 12.5332 26.25 15C26.25 21.2168 21.2109 26.25 15 26.25Z" fill="#303030"/>
</g>
<defs>
<clipPath id="clip0_553_13">
<rect width="30" height="30" fill="white"/>
</clipPath>
</defs>
</svg>
