<svg width="40" height="40" viewBox="0 0 40 40" fill="none" xmlns="http://www.w3.org/2000/svg">
<circle cx="20" cy="20" r="20" fill="#E7BD2C"/>
<path d="M23 10C24.5977 10 25.9037 11.2489 25.9949 12.8237L26 13V16C26 16.2604 25.8985 16.5087 25.7202 16.6938L25.6247 16.7809L21.6 20L25.6247 23.2191C25.8619 23.4089 26 23.6962 26 24V27C26 28.6569 24.6569 30 23 30H17C15.3431 30 14 28.6569 14 27V24C14 23.6962 14.1381 23.4089 14.3753 23.2191L18.399 20L14.3753 16.7809C14.172 16.6182 14.0415 16.3839 14.0083 16.1289L14 16V13C14 11.4023 15.2489 10.0963 16.8237 10.0051L17 10H23ZM20 21.281L16 24.48V27C16 27.5523 16.4477 28 17 28H23L23.1166 27.9933C23.614 27.9355 24 27.5128 24 27V24.481L20 21.281ZM23 12H17C16.4872 12 16.0645 12.386 16.0067 12.8834L16 13V14H24V13C24 12.5266 23.6711 12.1301 23.2293 12.0264L23.1166 12.0067L23 12Z" fill="white"/>
</svg>
