<svg width="30" height="30" viewBox="0 0 30 30" fill="none" xmlns="http://www.w3.org/2000/svg">
<path fill-rule="evenodd" clip-rule="evenodd" d="M16.072 5.46601C15.5865 4.65683 14.4138 4.65683 13.9283 5.46601L3.34371 23.1069C2.84382 23.94 3.44396 25 4.41557 25H25.5846C26.5562 25 27.1564 23.94 26.6565 23.1069L16.072 5.46601ZM11.7845 4.17977C13.241 1.75224 16.7593 1.75226 18.2158 4.17977L28.8002 21.8206C30.2999 24.3201 28.4995 27.5 25.5846 27.5H4.41557C1.50072 27.5 -0.299696 24.3201 1.19998 21.8206L11.7845 4.17977ZM15.0001 10C15.6905 10 16.2501 10.5596 16.2501 11.25V16.25C16.2501 16.9404 15.6905 17.5 15.0001 17.5C14.3098 17.5 13.7501 16.9404 13.7501 16.25V11.25C13.7501 10.5596 14.3098 10 15.0001 10ZM15.0001 18.75C15.6905 18.75 16.2501 19.3096 16.2501 20V21.25C16.2501 21.9404 15.6905 22.5 15.0001 22.5C14.3098 22.5 13.7501 21.9404 13.7501 21.25V20C13.7501 19.3096 14.3098 18.75 15.0001 18.75Z" fill="#303030"/>
</svg>
